<?xml version="1.0" standalone="no"?>
<!DOCTYPE svg PUBLIC "-//W3C//DTD SVG 20010904//EN"
 "http://www.w3.org/TR/2001/REC-SVG-20010904/DTD/svg10.dtd">
<svg version="1.0" xmlns="http://www.w3.org/2000/svg"
 width="512.000000pt" height="512.000000pt" viewBox="0 0 512.000000 512.000000"
 preserveAspectRatio="xMidYMid meet">
<metadata>
Created by potrace 1.15, written by Peter Selinger 2001-2017
</metadata>
<g transform="translate(0.000000,512.000000) scale(0.100000,-0.100000)"
fill="#000" stroke="none">
<path d="M1800 3939 c-462 -54 -843 -268 -987 -554 -62 -123 -66 -145 -71
-447 l-4 -278 1821 0 1821 0 0 239 c0 283 -11 358 -69 476 -136 274 -438 462
-891 551 -74 15 -177 17 -815 20 -401 1 -764 -2 -805 -7z m373 -220 c94 -48
64 -189 -41 -189 -102 0 -136 128 -48 181 36 22 58 24 89 8z m863 -8 c87 -53
54 -181 -47 -181 -101 0 -140 129 -56 181 40 24 64 24 103 0z m-1264 -440 c27
-24 33 -36 33 -71 0 -35 -6 -47 -33 -71 -44 -40 -93 -40 -133 0 -62 62 -20
171 65 171 25 0 45 -9 68 -29z m837 15 c67 -35 65 -143 -4 -174 -51 -23 -107
-7 -131 39 -47 91 44 182 135 135z m872 -15 c62 -62 20 -171 -65 -171 -25 0
-45 9 -68 29 -27 24 -33 36 -33 71 0 35 6 47 33 71 44 40 93 40 133 0z"/>
<path d="M681 2446 c-83 -30 -151 -123 -151 -206 0 -86 73 -183 159 -208 55
-17 3687 -17 3742 0 86 25 159 122 159 208 0 86 -73 183 -159 208 -57 18
-3702 16 -3750 -2z"/>
<path d="M742 1668 c3 -141 6 -158 31 -212 62 -133 164 -229 284 -266 64 -20
91 -20 1503 -20 1364 0 1441 1 1497 18 120 38 219 126 280 249 l38 77 4 153 3
153 -1822 0 -1822 0 4 -152z"/>
</g>
</svg>
